<?xml version="1.0" encoding="utf-8"?>
<!-- Generated by IcoMoon.io -->
<!DOCTYPE svg PUBLIC "-//W3C//DTD SVG 1.1//EN" "http://www.w3.org/Graphics/SVG/1.1/DTD/svg11.dtd">
<svg version="1.1" xmlns="http://www.w3.org/2000/svg" xmlns:xlink="http://www.w3.org/1999/xlink" width="32" height="32" viewBox="0 0 32 32">
<g>
</g>
	<path d="M26.168 0.75h-20.334c-2.806 0-5.083 2.275-5.083 5.083v20.333c0 2.81 2.277 5.085 5.083 5.085h20.334c2.806 0 5.082-2.275 5.082-5.085v-20.333c0-2.808-2.275-5.083-5.082-5.083zM28.709 26.166c0 1.403-1.141 2.544-2.541 2.544h-20.334c-1.4 0-2.541-1.141-2.541-2.544v-20.333c0-1.402 1.141-2.542 2.541-2.542h20.334c1.4 0 2.541 1.141 2.541 2.542v20.333zM21.085 5.834l-5.085 6.776-5.083-6.776h-3.811l6.672 8.896h-5.402v2.541h6.355v1.27h-6.355v2.544h6.355v5.082h2.541v-5.082h6.354v-2.544h-6.354v-1.27h6.354v-2.541h-5.4l6.672-8.896h-3.813z" fill="#000000"></path>
</svg>
