<?xml version="1.0" encoding="utf-8"?>
<!-- Generated by IcoMoon.io -->
<!DOCTYPE svg PUBLIC "-//W3C//DTD SVG 1.1//EN" "http://www.w3.org/Graphics/SVG/1.1/DTD/svg11.dtd">
<svg version="1.1" xmlns="http://www.w3.org/2000/svg" xmlns:xlink="http://www.w3.org/1999/xlink" width="32" height="32" viewBox="0 0 32 32">
<g>
</g>
	<path d="M29.208 12.038l-1.373-7.123c-0.245-1.235-1.331-2.123-2.59-2.123h-18.493c-1.259 0-2.344 0.888-2.59 2.123l-1.37 7.123c-1.459 0-2.642 1.182-2.642 2.642v9.246h1.32v2.638c0 1.459 1.184 2.64 2.64 2.64 1.459 0 2.642-1.181 2.642-2.64v-2.638h18.494v2.638c0 1.459 1.181 2.64 2.64 2.64 1.456 0 2.64-1.181 2.64-2.64v-2.638h1.318l0-9.246c0.005-1.459-1.178-2.642-2.637-2.642zM6.752 5.434h18.491l1.101 6.605-20.693-0 1.101-6.605zM5.434 19.966c-1.459 0-2.64-1.182-2.64-2.642s1.181-2.642 2.64-2.642 2.642 1.182 2.642 2.642-1.182 2.642-2.642 2.642zM26.566 19.966c-1.459 0-2.638-1.182-2.638-2.642s1.179-2.642 2.638-2.642 2.642 1.182 2.642 2.642-1.182 2.642-2.642 2.642z" fill="#000000"></path>
</svg>
