<?xml version="1.0" encoding="utf-8"?>
<!-- Generated by IcoMoon.io -->
<!DOCTYPE svg PUBLIC "-//W3C//DTD SVG 1.1//EN" "http://www.w3.org/Graphics/SVG/1.1/DTD/svg11.dtd">
<svg version="1.1" xmlns="http://www.w3.org/2000/svg" xmlns:xlink="http://www.w3.org/1999/xlink" width="32" height="32" viewBox="0 0 32 32">
<g>
</g>
	<path d="M26.666 2.286c-0.838-0.84-2.203-0.84-3.046 0l-7.619 7.618-7.618-7.618c-0.843-0.84-2.208-0.84-3.050 0l-3.045 3.046c-0.842 0.843-0.842 2.206 0 3.048l7.614 7.619-7.616 7.619c-0.843 0.84-0.843 2.206 0 3.048l3.046 3.046c0.842 0.842 2.205 0.842 3.048 0l7.619-7.616 7.621 7.618c0.842 0.842 2.206 0.842 3.048 0l3.045-3.046c0.842-0.842 0.842-2.206 0-3.048l-7.614-7.621 7.616-7.619c0.842-0.842 0.842-2.205 0-3.048l-3.050-3.046z" fill="#000000"></path>
</svg>
