<?xml version="1.0" encoding="utf-8"?>
<!-- Generated by IcoMoon.io -->
<!DOCTYPE svg PUBLIC "-//W3C//DTD SVG 1.1//EN" "http://www.w3.org/Graphics/SVG/1.1/DTD/svg11.dtd">
<svg version="1.1" xmlns="http://www.w3.org/2000/svg" xmlns:xlink="http://www.w3.org/1999/xlink" width="32" height="32" viewBox="0 0 32 32">
<g>
</g>
	<path d="M26.266 14.714c-0.938 0-1.806 0.272-2.566 0.712l-0-1.693c0-0.874-0.709-1.584-1.581-1.584h-19.934c-0.875 0-1.584 0.71-1.584 1.584v11.336c0 3.498 2.834 6.331 6.331 6.331h10.44c3.494 0 6.328-2.834 6.328-6.331v-0.8c0.76 0.44 1.629 0.712 2.566 0.712 2.834 0 5.134-2.298 5.134-5.134 0-2.834-2.299-5.133-5.134-5.133zM26.266 22.416c-1.416 0-2.566-1.147-2.566-2.566s1.15-2.566 2.566-2.566c1.419 0 2.566 1.147 2.566 2.566 0.002 1.419-1.147 2.566-2.566 2.566zM8.301 8.301c-0 0.002-0 0.005-0 0.008 0 1.063 1.724 1.925 3.85 1.925 2.11 0 3.823-0.849 3.849-1.9 0-0.035 0-0.037 0-0.040 0-1.063-1.724-1.925-3.85-1.925-2.11 0-3.823 0.849-3.849 1.9zM0.6 3.166c0 1.417 2.585 2.566 5.774 2.566s5.774-1.149 5.774-2.566c0-1.417-2.585-2.566-5.774-2.566-3.189 0-5.774 1.149-5.774 2.566z" fill="#000000"></path>
</svg>
