<?xml version="1.0" encoding="utf-8"?>
<!-- Generated by IcoMoon.io -->
<!DOCTYPE svg PUBLIC "-//W3C//DTD SVG 1.1//EN" "http://www.w3.org/Graphics/SVG/1.1/DTD/svg11.dtd">
<svg version="1.1" xmlns="http://www.w3.org/2000/svg" xmlns:xlink="http://www.w3.org/1999/xlink" width="32" height="32" viewBox="0 0 32 32">
<g>
</g>
	<path d="M0.629 9.598v12.805l10.080-6.403zM31.371 7.077c0-0.41-0.088-0.8-0.246-1.154-0.446-0.989-1.459-1.68-2.634-1.68h-24.979c-1.179 0-2.194 0.698-2.638 1.693-0.158 0.35-0.245 0.736-0.245 1.141l15.373 9.765 15.37-9.765zM31.371 22.403v-12.805l-10.080 6.402zM16.002 19.36l-3.307-2.101-12.066 7.664c0 0.403 0.085 0.79 0.245 1.141 0.445 0.997 1.459 1.694 2.638 1.694h24.978c1.174 0 2.187-0.691 2.634-1.682 0.16-0.354 0.246-0.744 0.246-1.154l-12.066-7.664-3.302 2.101z" fill="#000000"></path>
</svg>
