<?xml version="1.0" encoding="utf-8"?>
<!-- Generated by IcoMoon.io -->
<!DOCTYPE svg PUBLIC "-//W3C//DTD SVG 1.1//EN" "http://www.w3.org/Graphics/SVG/1.1/DTD/svg11.dtd">
<svg version="1.1" xmlns="http://www.w3.org/2000/svg" xmlns:xlink="http://www.w3.org/1999/xlink" width="32" height="32" viewBox="0 0 32 32">
<g>
</g>
	<path d="M19.696 7.93c-4.224-2.082-9.232-0.957-11.195 2.514-1.254 2.224-0.955 4.87 0.534 7.034 1.976 3 1.59 5.334 1.59 5.338-0.266 0.549-0.458 1.144-0.558 1.774-0.522 3.266 1.546 6.262 4.622 6.694 2.405 0.336 4.715-0.998 5.856-3.16 4.181-7.331 4.027-12.952 4.027-12.957 0.075-2.805-1.739-5.688-4.877-7.237zM9.061 7.694c1.603-0.586 2.294-2.514 1.546-4.306s-2.656-2.771-4.258-2.186c-1.603 0.586-2.296 2.514-1.547 4.306 0.749 1.792 2.656 2.77 4.259 2.186zM14.133 5.797c1.267-0.069 2.222-1.272 2.136-2.686-0.090-1.414-1.184-2.509-2.45-2.442-1.267 0.069-2.222 1.272-2.134 2.688 0.086 1.416 1.184 2.509 2.448 2.44zM18.526 6.384c1.144 0.272 2.352-0.549 2.696-1.827 0.346-1.278-0.302-2.536-1.445-2.805-1.146-0.269-2.354 0.549-2.698 1.829-0.346 1.28 0.304 2.534 1.446 2.803zM22.066 8.246c0.902 0.517 2.176 0.115 2.837-0.899 0.661-1.011 0.464-2.253-0.442-2.77-0.904-0.515-2.174-0.114-2.837 0.898-0.661 1.014-0.464 2.254 0.442 2.771zM27.352 8.995c-0.395-0.714-1.456-0.933-2.368-0.49-0.91 0.443-1.331 1.381-0.936 2.091 0.397 0.712 1.458 0.931 2.37 0.49 0.912-0.443 1.33-1.379 0.934-2.091z" fill="#000000"></path>
</svg>
