<?xml version="1.0" encoding="utf-8"?>
<!-- Generated by IcoMoon.io -->
<!DOCTYPE svg PUBLIC "-//W3C//DTD SVG 1.1//EN" "http://www.w3.org/Graphics/SVG/1.1/DTD/svg11.dtd">
<svg version="1.1" xmlns="http://www.w3.org/2000/svg" xmlns:xlink="http://www.w3.org/1999/xlink" width="32" height="32" viewBox="0 0 32 32">
<g>
</g>
	<path d="M14.715 31.419h2.566v-10.282l-2.566 0v10.282zM18.57 31.419c5.93 0.035 9.69-2.534 10.28-8.91-5.338-0.686-10.16 2.938-10.28 8.91zM3.15 22.507c0.59 6.376 4.35 8.947 10.28 8.91-0.122-5.971-4.941-9.595-10.28-8.91zM21.782 21.126c1.843-1.064 2.474-3.422 1.41-5.266-0.568-0.982-2.39-1.949-3.971-2.64-0.65 0.994-1.747 1.654-3.005 1.725-0.195 1.715-0.269 3.784 0.301 4.77 1.062 1.845 3.421 2.478 5.266 1.411zM12.778 13.222c-1.581 0.691-3.403 1.658-3.971 2.642-1.064 1.842-0.434 4.202 1.411 5.264 1.843 1.066 4.202 0.434 5.266-1.41 0.57-0.984 0.493-3.054 0.299-4.771-1.258-0.070-2.352-0.731-3.005-1.725zM8.29 14.97c1.138 0 2.893-1.102 4.283-2.128-0.266-0.522-0.427-1.102-0.427-1.728s0.163-1.205 0.427-1.728c-1.392-1.026-3.146-2.126-4.283-2.126-2.128 0-3.854 1.725-3.854 3.854s1.726 3.856 3.854 3.856zM12.778 9.005c0.651-0.992 1.747-1.653 3.003-1.723 0.194-1.717 0.27-3.786-0.301-4.773-1.062-1.843-3.419-2.475-5.264-1.41-1.843 1.064-2.475 3.421-1.41 5.264 0.568 0.984 2.392 1.95 3.971 2.642zM19.221 9.005c1.581-0.691 3.403-1.658 3.973-2.64 1.062-1.843 0.434-4.202-1.411-5.266-1.845-1.064-4.203-0.432-5.267 1.411-0.568 0.986-0.496 3.054-0.301 4.771 1.259 0.070 2.355 0.731 3.006 1.723zM19.854 11.114c0 0.626-0.163 1.206-0.429 1.728 1.392 1.026 3.147 2.128 4.283 2.128 2.128 0 3.856-1.726 3.856-3.856s-1.728-3.854-3.856-3.854c-1.138 0-2.893 1.101-4.283 2.126 0.267 0.523 0.429 1.102 0.429 1.728z" fill="#000000"></path>
</svg>
