<?xml version="1.0" encoding="utf-8"?>
<!-- Generated by IcoMoon.io -->
<!DOCTYPE svg PUBLIC "-//W3C//DTD SVG 1.1//EN" "http://www.w3.org/Graphics/SVG/1.1/DTD/svg11.dtd">
<svg version="1.1" xmlns="http://www.w3.org/2000/svg" xmlns:xlink="http://www.w3.org/1999/xlink" width="32" height="32" viewBox="0 0 32 32">
<g>
</g>
	<path d="M28.406 17.827c0.056-0.458 0.901-1.134 0.93-1.595 0.046-0.837-1.083-2.478-1.864-2.794-1.235-0.501-7.515-0.266-7.515-0.266-0.613-1.074 1.096-3.723 1.563-4.869 0.69-1.675 0.573-3.899-0.299-5.043-1.064-1.395-3.019-1.488-3.059-0.862-0.291 4.53-1.16 5.789-2.32 6.682-0.699 0.539-1.309 1.011-1.632 1.83-1.978 5.040-3.443 6.208-4.283 6.208l-0.558-0v11.454l5.867 1.093c0 0 7.286 0.69 9.581 0 0.72-0.216 1.966-1.301 2.258-1.997 0.166-0.397-0.062-1.344 0.134-1.728 0.294-0.57 1.533-1.285 1.53-2.061 0-0.555-0.643-1.51-0.597-2.061 0.045-0.554 1.198-1.31 1.195-1.862-0.003-0.582-1.006-1.554-0.93-2.13zM7.134 16.56h-3.352c-0.618 0-1.118 0.501-1.118 1.117v10.618c0 0.618 0.501 1.118 1.118 1.118h3.354c0.616 0 1.117-0.501 1.117-1.118v-10.618c0-0.618-0.502-1.117-1.118-1.117z" fill="#000000"></path>
</svg>
