<?xml version="1.0" encoding="utf-8"?>
<!-- Generated by IcoMoon.io -->
<!DOCTYPE svg PUBLIC "-//W3C//DTD SVG 1.1//EN" "http://www.w3.org/Graphics/SVG/1.1/DTD/svg11.dtd">
<svg version="1.1" xmlns="http://www.w3.org/2000/svg" xmlns:xlink="http://www.w3.org/1999/xlink" width="32" height="32" viewBox="0 0 32 32">
<g>
</g>
	<path d="M16 1.6c-6.186 0-11.2 4.834-11.2 10.8s11.2 18 11.2 18 11.2-12.034 11.2-18-5.014-10.8-11.2-10.8zM16 19.6c-4.125 0-7.467-3.226-7.467-7.2 0-3.976 3.342-7.2 7.467-7.2 4.123 0 7.467 3.224 7.467 7.2 0 3.974-3.344 7.2-7.467 7.2zM16 7.6c-2.75 0-4.978 2.149-4.978 4.8 0 2.65 2.229 4.8 4.978 4.8 2.749 0 4.978-2.15 4.978-4.8 0-2.651-2.229-4.8-4.978-4.8z" fill="#000000"></path>
</svg>
