<?xml version="1.0" encoding="utf-8"?>
<!-- Generated by IcoMoon.io -->
<!DOCTYPE svg PUBLIC "-//W3C//DTD SVG 1.1//EN" "http://www.w3.org/Graphics/SVG/1.1/DTD/svg11.dtd">
<svg version="1.1" xmlns="http://www.w3.org/2000/svg" xmlns:xlink="http://www.w3.org/1999/xlink" width="32" height="32" viewBox="0 0 32 32">
<g>
</g>
	<path d="M16 16c4.216 0 7.634-3.416 7.634-7.634 0-4.216-3.418-7.635-7.634-7.635s-7.635 3.419-7.635 7.635c0 4.218 3.419 7.634 7.635 7.634zM22.661 14.643c-1.672 1.771-4.035 2.885-6.661 2.885-2.629 0-4.99-1.112-6.662-2.885-2.789 1.704-4.536 6.691-4.536 11.102 0 1.522 0.552 2.382 1.814 3.053 2.024 1.075 3.853 2.47 9.384 2.47 5.528 0 7.358-1.395 9.382-2.47 1.261-0.67 1.816-1.531 1.816-3.053 0-4.411-1.747-9.397-4.538-11.102z" fill="#000000"></path>
</svg>
