<?xml version="1.0" encoding="utf-8"?>
<!-- Generated by IcoMoon.io -->
<!DOCTYPE svg PUBLIC "-//W3C//DTD SVG 1.1//EN" "http://www.w3.org/Graphics/SVG/1.1/DTD/svg11.dtd">
<svg version="1.1" xmlns="http://www.w3.org/2000/svg" xmlns:xlink="http://www.w3.org/1999/xlink" width="32" height="32" viewBox="0 0 32 32">
<g>
</g>
	<path d="M21.099 0.638h-10.198c-2.061 0-3.731 1.701-3.731 3.798v23.123c0 2.099 1.67 3.8 3.731 3.8h10.197c2.062 0 3.731-1.701 3.731-3.8v-23.123c0.002-2.096-1.667-3.798-3.73-3.798zM16.002 29.354c-1.003 0-1.821-0.814-1.821-1.818s0.818-1.814 1.821-1.814c1.002 0 1.816 0.811 1.816 1.814s-0.813 1.818-1.816 1.818zM22.53 24.2h-13.058v-19.341h13.058v19.341z" fill="#000000"></path>
</svg>
