<?xml version="1.0" encoding="utf-8"?>
<!-- Generated by IcoMoon.io -->
<!DOCTYPE svg PUBLIC "-//W3C//DTD SVG 1.1//EN" "http://www.w3.org/Graphics/SVG/1.1/DTD/svg11.dtd">
<svg version="1.1" xmlns="http://www.w3.org/2000/svg" xmlns:xlink="http://www.w3.org/1999/xlink" width="32" height="32" viewBox="0 0 32 32">
<g>
</g>
	<path d="M16 0.15c-8.741 0-15.85 7.109-15.85 15.85s7.109 15.85 15.85 15.85c8.738 0 15.851-7.109 15.851-15.85s-7.114-15.85-15.851-15.85zM16 29.21c-7.285 0-13.208-5.925-13.208-13.21 0-7.283 5.923-13.21 13.208-13.21 7.282 0 13.21 5.926 13.21 13.21 0 7.285-5.928 13.21-13.21 13.21zM22.166 8.36c-0.568-0.515-1.259-0.91-2.069-1.19-0.81-0.278-1.731-0.414-2.763-0.414l-6.618-0v18.493h4.082v-6.794h2.562c1.035 0 1.957-0.139 2.766-0.419 0.806-0.278 1.494-0.67 2.053-1.176 0.563-0.506 0.99-1.12 1.294-1.838 0.301-0.718 0.453-1.522 0.453-2.403 0-0.883-0.154-1.686-0.453-2.405-0.306-0.72-0.739-1.336-1.307-1.853zM18.984 14.589c-0.566 0.467-1.506 0.699-2.814 0.699h-1.371v-5.346h1.371c1.309 0 2.25 0.234 2.814 0.699 0.57 0.464 0.856 1.123 0.856 1.974 0 0.85-0.286 1.507-0.856 1.973z" fill="#000000"></path>
</svg>
