<?xml version="1.0" encoding="utf-8"?>
<!-- Generated by IcoMoon.io -->
<!DOCTYPE svg PUBLIC "-//W3C//DTD SVG 1.1//EN" "http://www.w3.org/Graphics/SVG/1.1/DTD/svg11.dtd">
<svg version="1.1" xmlns="http://www.w3.org/2000/svg" xmlns:xlink="http://www.w3.org/1999/xlink" width="32" height="32" viewBox="0 0 32 32">
<g>
</g>
	<path d="M23.55 5.358c2.894 2.251 4.797 6.086 4.797 10.435 0 4.352-1.902 8.186-4.797 10.437v2.789c4.672-2.088 7.99-7.403 7.99-13.632 0-6.23-3.318-11.547-7.99-13.634v3.605zM2.899 8.683c-1.349 0-2.438 1.093-2.438 2.437v9.76c0 1.347 1.091 2.438 2.438 2.438h7.469l7.118 7.317c1.374 0 2.488-1.093 2.488-2.438v-24.394c0-1.349-1.112-2.438-2.488-2.438l-7.192 7.318h-7.395z" fill="#000000"></path>
</svg>
