<?xml version="1.0" encoding="utf-8"?>
<!-- Generated by IcoMoon.io -->
<!DOCTYPE svg PUBLIC "-//W3C//DTD SVG 1.1//EN" "http://www.w3.org/Graphics/SVG/1.1/DTD/svg11.dtd">
<svg version="1.1" xmlns="http://www.w3.org/2000/svg" xmlns:xlink="http://www.w3.org/1999/xlink" width="32" height="32" viewBox="0 0 32 32">
<g>
</g>
	<path d="M30.787 26.422l-0.184-0.184-7.147-7.155c1.050-1.8 1.666-3.888 1.666-6.123 0-6.717-5.446-12.16-12.162-12.16-0.006 0-0.013 0-0.021 0-0.006 0-0.010 0-0.016 0h-0.080c-6.614 0-12 5.347-12.043 11.979 0 0.034 0.003 0.064 0.003 0.098 0 0.027-0.003 0.056-0.003 0.083 0 6.717 5.443 12.16 12.162 12.16 2.238 0 4.331-0.616 6.133-1.672l7.33 7.338c0.555 0.554 1.451 0.554 2.006 0l2.358-2.358c0.549-0.554 0.549-1.453-0.002-2.005zM12.962 21.067c-4.477 0-8.107-3.632-8.107-8.107 0-4.477 3.632-8.106 8.107-8.106 4.475 0 8.104 3.63 8.104 8.106 0 4.475-3.63 8.107-8.104 8.107z" fill="#000000"></path>
</svg>
