<?xml version="1.0" encoding="utf-8"?>
<!-- Generated by IcoMoon.io -->
<!DOCTYPE svg PUBLIC "-//W3C//DTD SVG 1.1//EN" "http://www.w3.org/Graphics/SVG/1.1/DTD/svg11.dtd">
<svg version="1.1" xmlns="http://www.w3.org/2000/svg" xmlns:xlink="http://www.w3.org/1999/xlink" width="32" height="32" viewBox="0 0 32 32">
<g>
</g>
	<path d="M27.184 12.901c-0.253-0.92-0.627-1.789-1.085-2.602 0.504-0.677 2.406-3.408 1.066-4.746l-0.68-0.717c-1.139-1.136-4.051 0.654-4.731 1.098-0.827-0.47-1.714-0.848-2.658-1.102-0.152-0.898-0.813-4.032-2.674-4.032h-0.746c-1.598 0-2.514 3.238-2.72 4.053-0.928 0.259-1.805 0.638-2.621 1.109-0.632-0.47-3.418-2.402-4.774-1.048l-0.717 0.603c-1.234 1.229 0.95 4.546 1.158 4.853-0.443 0.798-0.806 1.646-1.054 2.546-0.701 0.107-4.149 0.738-4.149 2.686v0.744c0 1.685 3.614 2.61 4.166 2.744 0.251 0.891 0.616 1.731 1.061 2.522-0.254 0.39-2.325 3.659-1.109 4.872l0.678 0.563c1.536 1.534 4.746-0.981 4.746-0.981l-0.165-0.178c0.854 0.512 1.781 0.915 2.763 1.19 0.16 0.653 1.080 4.122 2.736 4.122h0.747c2.17 0 2.712-4.046 2.712-4.046l-0.197-0.006c0.982-0.253 1.914-0.634 2.776-1.118 0.656 0.44 3.518 2.24 4.659 1.101l0.757-0.757c1.536-1.531-1.026-4.698-1.026-4.698l-0.056 0.053c0.478-0.834 0.866-1.728 1.131-2.675 0.869-0.222 4.019-1.131 4.019-2.707l0-0.744c0-2.046-3.61-2.64-4.016-2.701zM15.944 21.634c-3.064 0-5.547-2.557-5.547-5.613 0-3.058 2.483-5.638 5.547-5.638 3.062 0 5.763 2.581 5.763 5.638-0.002 3.058-2.701 5.613-5.763 5.613z" fill="#000000"></path>
</svg>
