<?xml version="1.0" encoding="utf-8"?>
<!-- Generated by IcoMoon.io -->
<!DOCTYPE svg PUBLIC "-//W3C//DTD SVG 1.1//EN" "http://www.w3.org/Graphics/SVG/1.1/DTD/svg11.dtd">
<svg version="1.1" xmlns="http://www.w3.org/2000/svg" xmlns:xlink="http://www.w3.org/1999/xlink" width="32" height="32" viewBox="0 0 32 32">
<g>
</g>
	<path d="M16 3.166c-7.090 0-12.834 4.597-12.834 10.267h25.666c0.002-5.67-5.742-10.267-12.832-10.267zM8.301 28.834h15.4c4.253 0 5.133-2.299 5.133-5.134l-25.667-0c0 2.835 0.88 5.134 5.134 5.134zM28.834 16l-3.242 3.848-12.158-3.848h-10.267c-1.418 0-2.566 1.149-2.566 2.566 0 1.419 1.15 2.566 2.566 2.566h25.666c1.418 0 2.566-1.149 2.566-2.566 0.002-1.418-1.149-2.566-2.565-2.566z" fill="#000000"></path>
</svg>
