<?xml version="1.0" encoding="utf-8"?>
<!-- Generated by IcoMoon.io -->
<!DOCTYPE svg PUBLIC "-//W3C//DTD SVG 1.1//EN" "http://www.w3.org/Graphics/SVG/1.1/DTD/svg11.dtd">
<svg version="1.1" xmlns="http://www.w3.org/2000/svg" xmlns:xlink="http://www.w3.org/1999/xlink" width="32" height="32" viewBox="0 0 32 32">
<g>
</g>
	<path d="M24.597 13.986c-0.083-0.253-0.301-0.435-0.565-0.474l-5.118-0.744-2.288-4.638c-0.235-0.477-1.016-0.477-1.251 0l-2.29 4.638-5.118 0.744c-0.262 0.038-0.482 0.221-0.563 0.474-0.082 0.253-0.013 0.53 0.176 0.715l3.706 3.613-0.875 5.098c-0.045 0.262 0.062 0.526 0.277 0.682 0.216 0.157 0.501 0.176 0.736 0.053l4.578-2.408 4.576 2.408c0.102 0.053 0.214 0.082 0.326 0.082 0.144 0 0.288-0.045 0.41-0.134 0.214-0.157 0.322-0.421 0.277-0.682l-0.875-5.098 3.706-3.613c0.19-0.186 0.259-0.462 0.178-0.715z" fill="#000000"></path>
</svg>
