<?xml version="1.0" encoding="utf-8"?>
<!-- Generated by IcoMoon.io -->
<!DOCTYPE svg PUBLIC "-//W3C//DTD SVG 1.1//EN" "http://www.w3.org/Graphics/SVG/1.1/DTD/svg11.dtd">
<svg version="1.1" xmlns="http://www.w3.org/2000/svg" xmlns:xlink="http://www.w3.org/1999/xlink" width="32" height="32" viewBox="0 0 32 32">
<g>
</g>
	<path d="M29.923 24.53l-11.344-19.648c-1.387-2.402-3.654-2.402-5.043 0l-11.344 19.648c-1.387 2.405-0.253 4.366 2.52 4.366h22.691c2.773 0 3.906-1.962 2.52-4.366zM14.499 10.458c0.408-0.44 0.926-0.661 1.558-0.661s1.15 0.218 1.558 0.653c0.405 0.435 0.608 0.979 0.608 1.634 0 0.563-0.846 4.704-1.128 7.717h-2.040c-0.248-3.013-1.166-7.154-1.166-7.717 0.002-0.645 0.205-1.187 0.61-1.626zM17.587 24.782c-0.429 0.418-0.939 0.626-1.53 0.626s-1.101-0.208-1.53-0.626c-0.427-0.416-0.64-0.922-0.64-1.514 0-0.589 0.213-1.099 0.64-1.528 0.429-0.427 0.939-0.642 1.53-0.642 0.59 0 1.101 0.214 1.53 0.642 0.427 0.427 0.64 0.938 0.64 1.528 0 0.592-0.213 1.098-0.64 1.514z" fill="#000000"></path>
</svg>
