<?xml version="1.0" encoding="utf-8"?>
<!-- Generated by IcoMoon.io -->
<!DOCTYPE svg PUBLIC "-//W3C//DTD SVG 1.1//EN" "http://www.w3.org/Graphics/SVG/1.1/DTD/svg11.dtd">
<svg version="1.1" xmlns="http://www.w3.org/2000/svg" xmlns:xlink="http://www.w3.org/1999/xlink" width="32" height="32" viewBox="0 0 32 32">
<g>
</g>
	<path d="M10.851 14.714h-5.149v2.573l7.722-0c0.002-1.421-1.15-2.574-2.573-2.573zM29.515 13.426c-1.066 0-1.931 0.864-1.931 1.931v3.218l-23.17-0v-13.515c0-1.067-0.864-1.931-1.931-1.931-1.066 0-1.93 0.864-1.93 1.931v21.882c0 1.069 0.864 1.931 1.93 1.931 1.067 0 1.931-0.862 1.931-1.931v-4.506h23.17v4.506c0 1.069 0.866 1.931 1.931 1.931 1.067 0 1.931-0.862 1.931-1.931v-11.584c0-1.067-0.864-1.931-1.931-1.931z" fill="#000000"></path>
</svg>
