<?xml version="1.0" encoding="utf-8"?>
<!-- Generated by IcoMoon.io -->
<!DOCTYPE svg PUBLIC "-//W3C//DTD SVG 1.1//EN" "http://www.w3.org/Graphics/SVG/1.1/DTD/svg11.dtd">
<svg version="1.1" xmlns="http://www.w3.org/2000/svg" xmlns:xlink="http://www.w3.org/1999/xlink" width="32" height="32" viewBox="0 0 32 32">
<g>
</g>
	<path d="M10.314 10.958c2.723 0 4.928-2.206 4.928-4.928s-2.205-4.928-4.928-4.928c-2.72 0-4.93 2.206-4.93 4.928s2.21 4.928 4.93 4.928zM12.998 12.723c-0.891-0.266-1.803-0.41-2.685-0.41-4.392 0-9.501 3.562-9.501 7.957v6.802h9.341c0.002-0-2.781-11.63 2.845-14.349zM28.955 15.296c-3.376-4.008-9.363-4.517-13.368-1.141-4.008 3.374-4.518 9.36-1.142 13.368 3.376 4.006 9.363 4.518 13.37 1.141 4.003-3.376 4.517-9.363 1.141-13.368zM16.238 26.011c-2.291-2.715-2.203-6.643 0.042-9.253l9.085 10.779c-2.95 1.77-6.835 1.19-9.126-1.526zM27.117 26.061l-9.085-10.779c2.952-1.771 6.835-1.189 9.126 1.526 2.29 2.717 2.205 6.643-0.042 9.253z" fill="#000000"></path>
</svg>
