<?xml version="1.0" encoding="utf-8"?>
<!-- Generated by IcoMoon.io -->
<!DOCTYPE svg PUBLIC "-//W3C//DTD SVG 1.1//EN" "http://www.w3.org/Graphics/SVG/1.1/DTD/svg11.dtd">
<svg version="1.1" xmlns="http://www.w3.org/2000/svg" xmlns:xlink="http://www.w3.org/1999/xlink" width="32" height="32" viewBox="0 0 32 32">
<g>
</g>
	<path d="M29.219 6.747h-1.587c0-0.584-0.472-1.058-1.058-1.058h-1.056c-0.584 0-1.059 0.474-1.059 1.058h-10.045c-1.058 0-1.058-2.643-2.115-2.643h-5.818c-1.056 0-1.056 2.643-2.112 2.643h-1.587c-1.459 0-2.643 1.184-2.643 2.643v15.862c0 1.458 1.184 2.642 2.643 2.642h26.437c1.458 0 2.642-1.184 2.642-2.642v-15.862c0-1.459-1.184-2.643-2.642-2.643zM10.712 10.976c0 0.584-0.472 1.059-1.056 1.059h-3.174c-0.582 0-1.056-0.475-1.056-1.059v-0.528c0-0.582 0.474-1.058 1.056-1.058h3.174c0.584 0 1.056 0.475 1.056 1.058v0.528zM21.288 25.253c-4.379 0-7.931-3.552-7.931-7.931s3.552-7.931 7.931-7.931 7.931 3.552 7.931 7.931-3.552 7.931-7.931 7.931zM21.288 11.504c-3.213 0-5.818 2.606-5.818 5.818s2.605 5.816 5.818 5.816c3.211 0 5.814-2.605 5.814-5.816s-2.603-5.818-5.814-5.818z" fill="#000000"></path>
</svg>
