<?xml version="1.0" encoding="utf-8"?>
<!-- Generated by IcoMoon.io -->
<!DOCTYPE svg PUBLIC "-//W3C//DTD SVG 1.1//EN" "http://www.w3.org/Graphics/SVG/1.1/DTD/svg11.dtd">
<svg version="1.1" xmlns="http://www.w3.org/2000/svg" xmlns:xlink="http://www.w3.org/1999/xlink" width="32" height="32" viewBox="0 0 32 32">
<g>
</g>
	<path d="M25.702 11.864c-0.352 0.35-1.53 0.312-1.53 0.312s-3.128-0.352-3.58-0.802c-0.45-0.452-0.762-3.718-0.762-3.718s-0.084-0.912 0.364-1.364c0.45-0.45 3.794-3.792 3.794-3.792s0.432-0.484-0.19-0.486c-2.006-0.006-6.084 0.040-8.058 2.016l-0.406 0.404c-2.574 2.59-2.506 6.63 0.024 9.172l3.064 3.062c2.532 2.542 6.56 2.614 9.142 0.026l0.404-0.406c1.914-1.912 1.972-5.954 1.98-7.996 0.006-0.65-0.47-0.232-0.47-0.232s-3.426 3.452-3.776 3.804z" fill="#000000"></path>
	<path d="M19.254 13.87l-1.108-1.106c-0.918-0.92-2.408-0.92-3.326 0l-11.636 10.528c-0.918 0.918-2.126 3.416 0 5.542s4.624 0.918 5.54 0c0 0 7.556-8.268 8.204-8.992 0.646-0.724 0.308-1.482 0.308-1.482s-1.33-1.856-2.048-2.968c-0.39-0.606-0.204-0.682 0.348-0.328 1.528 0.976 3.308 2.094 3.618 2.242l0.1-0.112c0.918-0.916 0.918-2.406 0-3.324zM6.258 27.65c-1.072 0-1.942-0.87-1.942-1.942s0.87-1.942 1.942-1.942 1.942 0.868 1.942 1.942-0.868 1.942-1.942 1.942z" fill="#000000"></path>
</svg>
