<?xml version="1.0" encoding="utf-8"?>
<!-- Generated by IcoMoon.io -->
<!DOCTYPE svg PUBLIC "-//W3C//DTD SVG 1.1//EN" "http://www.w3.org/Graphics/SVG/1.1/DTD/svg11.dtd">
<svg version="1.1" xmlns="http://www.w3.org/2000/svg" xmlns:xlink="http://www.w3.org/1999/xlink" width="32" height="32" viewBox="0 0 32 32">
<g>
</g>
	<path d="M2.15 3.008c-0.662 0-1.198 0.536-1.198 1.2v5.704h30.094v-5.704c0-0.664-0.538-1.2-1.2-1.2h-10.322l0-2.398h-6.978v2.398h-10.397zM21.816 27.722h-2.4v-11.707h2.4v11.707zM17.163 27.722h-2.325v-11.707h2.325v11.707zM12.582 27.722h-2.4v-11.707h2.4v11.707zM3.278 12.274v14.392c0 1.325 1.074 4.725 2.398 4.725h20.717c1.325 0 2.397-3.4 2.397-4.725v-14.392h-25.512z" fill="#000000"></path>
</svg>
