<?xml version="1.0" encoding="utf-8"?>
<!-- Generated by IcoMoon.io -->
<!DOCTYPE svg PUBLIC "-//W3C//DTD SVG 1.1//EN" "http://www.w3.org/Graphics/SVG/1.1/DTD/svg11.dtd">
<svg version="1.1" xmlns="http://www.w3.org/2000/svg" xmlns:xlink="http://www.w3.org/1999/xlink" width="32" height="32" viewBox="0 0 32 32">
<g>
</g>
	<path d="M21.584 17.387h-2.344v-10.15c0-0.349-0.291-0.64-0.64-0.64h-5.2c-0.35 0-0.642 0.291-0.642 0.64v10.15h-2.344c-0.597 0-0.797 0.682-0.453 1.094 1.862 2.237 3.723 4.474 5.584 6.709 0.139 0.165 0.299 0.224 0.453 0.213 0.157 0.011 0.317-0.048 0.454-0.213 1.862-2.235 3.725-4.472 5.584-6.709 0.344-0.413 0.147-1.094-0.453-1.094zM16 0.333c-8.651 0-15.666 7.014-15.666 15.667s7.014 15.666 15.666 15.666c8.654 0 15.667-7.013 15.667-15.666-0.002-8.651-7.014-15.667-15.667-15.667zM16 29.162c-7.267 0-13.16-5.893-13.16-13.162 0-7.267 5.893-13.16 13.16-13.16 7.269 0 13.16 5.891 13.16 13.16 0 7.269-5.891 13.162-13.16 13.162z" fill="#000000"></path>
</svg>
