<?xml version="1.0" encoding="utf-8"?>
<!-- Generated by IcoMoon.io -->
<!DOCTYPE svg PUBLIC "-//W3C//DTD SVG 1.1//EN" "http://www.w3.org/Graphics/SVG/1.1/DTD/svg11.dtd">
<svg version="1.1" xmlns="http://www.w3.org/2000/svg" xmlns:xlink="http://www.w3.org/1999/xlink" width="32" height="32" viewBox="0 0 32 32">
<g>
</g>
	<path d="M31.734 13.842c0-3.374-2.738-6.106-6.109-6.106-1.472 0-2.822 0.522-3.875 1.39 0.285-0.71 0.446-1.48 0.446-2.288 0-3.373-2.738-6.106-6.109-6.106-3.371 0-6.104 2.733-6.104 6.106 0 0.915 0.206 1.778 0.568 2.558-1.093-1.030-2.56-1.661-4.179-1.661-3.373 0-6.106 2.731-6.106 6.106 0 3.368 2.733 6.106 6.106 6.106 0.206 0 0.413-0.013 0.611-0.032-1.794 1.059-2.998 3.013-2.998 5.25 0 3.371 2.731 6.102 6.106 6.102 2.99 0 5.475-2.15 5.997-4.994 0.526 2.843 3.006 4.994 6 4.994 3.371 0 6.106-2.731 6.106-6.102 0-2.232-1.197-4.171-2.984-5.243 0.141 0.013 0.275 0.026 0.416 0.026 3.371-0 6.109-2.738 6.109-6.106zM21.115 16.838c0 2.778-2.253 5.024-5.029 5.024-2.773 0-5.022-2.246-5.022-5.024 0-2.776 2.25-5.026 5.022-5.026 2.776 0 5.029 2.25 5.029 5.026z" fill="#000000"></path>
</svg>
