<?xml version="1.0" encoding="utf-8"?>
<!-- Generated by IcoMoon.io -->
<!DOCTYPE svg PUBLIC "-//W3C//DTD SVG 1.1//EN" "http://www.w3.org/Graphics/SVG/1.1/DTD/svg11.dtd">
<svg version="1.1" xmlns="http://www.w3.org/2000/svg" xmlns:xlink="http://www.w3.org/1999/xlink" width="32" height="32" viewBox="0 0 32 32">
<g>
</g>
	<path d="M12.131 16c4.27 0 7.736-3.462 7.736-7.733 0-4.272-3.466-7.734-7.736-7.734s-7.731 3.462-7.731 7.734c0 4.27 3.461 7.733 7.731 7.733zM18.701 14.435c-1.642 1.752-3.974 2.853-6.57 2.853-2.592 0-4.925-1.101-6.57-2.853-3.085 1.523-5.029 6.8-5.029 11.435 0 1.541 0.571 2.414 1.88 3.093 2.096 1.088 3.992 2.502 9.718 2.502 5.728 0 7.624-1.416 9.72-2.502 1.309-0.678 1.882-1.552 1.882-3.093 0-4.635-1.947-9.91-5.032-11.435zM19.525 13.422c1.035 0.573 1.925 1.462 2.672 2.538 3.37-0.21 6.046-2.981 6.046-6.405 0-3.558-2.888-6.443-6.443-6.443-0.718 0-1.394 0.144-2.038 0.36 0.878 1.394 1.394 3.034 1.394 4.797-0 1.914-0.606 3.691-1.63 5.154zM27.466 14.805c-1.165 1.258-2.741 2.12-4.512 2.387 1.365 2.55 2.069 5.797 2.069 8.68 0 1.181-0.301 2.134-0.909 2.907 3.038-0.314 4.36-1.235 5.786-1.976 1.091-0.565 1.568-1.293 1.568-2.574-0-3.77-1.544-8.032-4.002-9.424z" fill="#000000"></path>
</svg>
