<?xml version="1.0" encoding="utf-8"?>
<!-- Generated by IcoMoon.io -->
<!DOCTYPE svg PUBLIC "-//W3C//DTD SVG 1.1//EN" "http://www.w3.org/Graphics/SVG/1.1/DTD/svg11.dtd">
<svg version="1.1" xmlns="http://www.w3.org/2000/svg" xmlns:xlink="http://www.w3.org/1999/xlink" width="32" height="32" viewBox="0 0 32 32">
<g>
</g>
	<path d="M31.218 5.218c-0.55-0.544-1.082-0.080-1.082-0.080l-6.731 6.725c-0.266 0.261-0.699 0.256-0.966-0.014-0.272-0.272-0.277-0.702-0.013-0.966l6.733-6.722c0 0 0.474-0.613-0.106-1.19-0.491-0.493-1.168-0.086-1.168-0.086l-6.738 6.728c-0.259 0.262-0.694 0.256-0.965-0.016-0.272-0.27-0.277-0.704-0.013-0.965l6.733-6.725c0 0 0.456-0.667-0.069-1.19-0.464-0.462-1.102 0.018-1.102 0.018l-7.699 7.689c-0.979 0.978-0.96 2.589 0.046 3.592l0.211 0.21c-5.763 5.597-11.309 9.387-14.859 12.85-0.99 0.966-3.083 3.331-2.906 4.722 0.075 0.582 1.099 1.622 1.686 1.685 1.389 0.144 3.605-2.086 4.544-3.082 3.4-3.611 7.408-8.906 13.050-14.662l0.21 0.213c1.010 1.006 2.618 1.027 3.597 0.050l7.699-7.691c-0.002-0 0.454-0.544-0.093-1.090zM6.829 10.099c1.898 1.914 3.133 3.141 5.978 5.010 0.677-0.576 1.357-1.181 2.048-1.806-1.787-1.827-3.976-4.173-5.962-6.309-1.765-1.899-3.434-3.693-4.688-4.971-0.197-0.205-0.605-0.626-1.122-0.634-0.283-0.002-0.55 0.12-0.792 0.363-1.254 1.251 1.752 5.56 3.714 7.52 0.293 0.291 0.563 0.566 0.824 0.827zM26.398 24.309c-0.291-0.27-0.538-0.502-0.734-0.701-1.469-1.466-3.845-3.688-5.947-5.645-0.322-0.302-0.64-0.598-0.949-0.888-0.598 0.645-1.181 1.277-1.742 1.904 0.104 0.139 0.203 0.269 0.312 0.414 1.469 1.944 3.298 4.363 5.672 6.859 0.274 0.291 0.531 0.568 0.784 0.834 2.154 2.294 3.456 3.678 5.048 3.509 0.28-0.032 0.53-0.154 0.734-0.358 0.203-0.198 0.349-0.475 0.403-0.77 0.294-1.514-2.037-3.706-3.581-5.158z" fill="#000000"></path>
</svg>
