<?xml version="1.0" encoding="utf-8"?>
<!-- Generated by IcoMoon.io -->
<!DOCTYPE svg PUBLIC "-//W3C//DTD SVG 1.1//EN" "http://www.w3.org/Graphics/SVG/1.1/DTD/svg11.dtd">
<svg version="1.1" xmlns="http://www.w3.org/2000/svg" xmlns:xlink="http://www.w3.org/1999/xlink" width="32" height="32" viewBox="0 0 32 32">
<g>
</g>
	<path d="M26.131 10.933h-2.531v-2.533c0-2.798-2.269-5.067-5.069-5.067 0-1.4-1.131-2.533-2.531-2.533h-11.4c-1.4 0-2.534 1.133-2.534 2.533v25.333c-0.701 0-1.266 0.566-1.266 1.266v1.269h19v-1.269c0-0.701-0.568-1.266-1.269-1.266v-15.2h2.534v10.134c0 2.797 2.269 5.066 5.066 5.066 2.8 0 5.069-2.269 5.069-5.066v-7.6c0-2.798-2.269-5.067-5.069-5.067zM4.6 3.333h11.4v7.6h-11.4v-7.6zM18.531 10.933v-5.067c1.4 0 2.534 1.134 2.534 2.534v2.533h-2.534zM26.131 26.131c-1.397 0-2.531-1.134-2.531-2.531v-10.134h2.531c1.4 0 2.534 1.134 2.534 2.534v7.6c0 1.397-1.134 2.531-2.534 2.531z" fill="#000000"></path>
</svg>
