<?xml version="1.0" encoding="utf-8"?>
<!-- Generated by IcoMoon.io -->
<!DOCTYPE svg PUBLIC "-//W3C//DTD SVG 1.1//EN" "http://www.w3.org/Graphics/SVG/1.1/DTD/svg11.dtd">
<svg version="1.1" xmlns="http://www.w3.org/2000/svg" xmlns:xlink="http://www.w3.org/1999/xlink" width="32" height="32" viewBox="0 0 32 32">
<g>
</g>
	<path d="M19.829 8.443c-1.648 0-3.056 1.173-3.83 1.984-0.773-0.811-2.179-1.984-3.826-1.984-2.838 0-4.821 1.978-4.821 4.811 0 3.122 2.461 5.139 4.843 7.090 1.122 0.925 2.288 1.875 3.179 2.934 0.152 0.176 0.37 0.278 0.6 0.278h0.046c0.232 0 0.451-0.101 0.6-0.278 0.894-1.056 2.058-2.010 3.182-2.931 2.379-1.954 4.843-3.968 4.843-7.093 0.003-2.834-1.979-4.811-4.818-4.811z" fill="#000000"></path>
</svg>
