<?xml version="1.0" encoding="utf-8"?>
<!-- Generated by IcoMoon.io -->
<!DOCTYPE svg PUBLIC "-//W3C//DTD SVG 1.1//EN" "http://www.w3.org/Graphics/SVG/1.1/DTD/svg11.dtd">
<svg version="1.1" xmlns="http://www.w3.org/2000/svg" xmlns:xlink="http://www.w3.org/1999/xlink" width="32" height="32" viewBox="0 0 32 32">
<g>
</g>
	<path d="M29.899 8.386h-6.47c0.203 4.066-2.835 3.808-2.835 3.808h-9.574c-2.915 0-3.107-2.738-3.072-3.808h-5.846c-0.933 0-1.686 0.754-1.686 1.683v17.966c0 0.931 0.754 1.685 1.686 1.685h27.797c0.933 0 1.686-0.754 1.686-1.685v-17.966c0-0.93-0.752-1.683-1.685-1.683zM9.477 14.85c1.494 0 2.704 1.211 2.704 2.706s-1.211 2.707-2.704 2.707c-1.496 0-2.706-1.213-2.706-2.707s1.21-2.706 2.706-2.706zM14.032 25.899h-9.736v-3.936c0 0-0.349-1.208 2.514-1.878l2.733 2.192 2.102-2.102c0 0 2.386 0.269 2.386 2.192l-0 3.533zM27.685 25.912h-9.739v-2.014h9.739v2.014zM27.685 22.018h-9.739v-2.016h9.739v2.016zM27.694 18.082h-9.742v-1.998h9.742v1.998zM9.574 8.386h-0.138c0.154 2.034 1.762 2.258 1.762 2.258h9.035c1.32 0 1.666-1.478 1.757-2.258h-9.928l4.013-0.11 5.95-0.134c0-3.222-2.954-2.73-2.954-2.73 0-3.266-3.4-3.13-3.4-3.13-3.624 0-3.534 3.13-3.534 3.13-2.907 0-2.773 2.73-2.773 2.73l0.21 0.245zM15.672 4.246c0.963 0 1.744 0.782 1.744 1.746 0 0.965-0.781 1.744-1.744 1.744-0.966 0-1.746-0.779-1.746-1.744 0-0.962 0.779-1.746 1.746-1.746z" fill="#000000"></path>
</svg>
