<?xml version="1.0" encoding="utf-8"?>
<!-- Generated by IcoMoon.io -->
<!DOCTYPE svg PUBLIC "-//W3C//DTD SVG 1.1//EN" "http://www.w3.org/Graphics/SVG/1.1/DTD/svg11.dtd">
<svg version="1.1" xmlns="http://www.w3.org/2000/svg" xmlns:xlink="http://www.w3.org/1999/xlink" width="32" height="32" viewBox="0 0 32 32">
<g>
</g>
	<path d="M10.733 14.227c1.17 0 2.118-0.949 2.118-2.117 0-1.17-0.949-2.118-2.118-2.118-1.166 0-2.115 0.949-2.115 2.118 0 1.168 0.949 2.117 2.115 2.117zM25.075 16.333l-2.029-3.883-4.139 5.442-3.848-3.605-8.563 8.229h18.595l-0.016-6.182zM28.934 3.493h-25.867c-1.466 0-2.653 1.187-2.653 2.651v19.712c0 1.462 1.187 2.65 2.653 2.65h25.867c1.464 0 2.651-1.187 2.651-2.65l0-19.712c0-1.464-1.187-2.651-2.651-2.651zM26.968 24.275h-22.32v-16.549h22.32v16.549z" fill="#000000"></path>
</svg>
