<?xml version="1.0" encoding="utf-8"?>
<!-- Generated by IcoMoon.io -->
<!DOCTYPE svg PUBLIC "-//W3C//DTD SVG 1.1//EN" "http://www.w3.org/Graphics/SVG/1.1/DTD/svg11.dtd">
<svg version="1.1" xmlns="http://www.w3.org/2000/svg" xmlns:xlink="http://www.w3.org/1999/xlink" width="32" height="32" viewBox="0 0 32 32">
<g>
</g>
	<path d="M16.010 1.573c-7.931 0-14.36 6.429-14.36 14.36s6.429 14.36 14.36 14.36c7.931 0 14.36-6.429 14.36-14.36s-6.429-14.36-14.36-14.36zM14.4 7.040c0-0.99 0.61-1.794 1.6-1.794s1.6 0.803 1.6 1.794v10.762c0 0.99-0.61 1.794-1.6 1.794s-1.6-0.803-1.6-1.794v-10.762zM16.11 25.2c-1.053 0-1.906-0.853-1.906-1.906 0-1.053 0.853-1.906 1.906-1.906 1.053 0 1.906 0.853 1.906 1.906 0 1.053-0.853 1.906-1.906 1.906z" fill="#000000"></path>
</svg>
