<?xml version="1.0" encoding="utf-8"?>
<!-- Generated by IcoMoon.io -->
<!DOCTYPE svg PUBLIC "-//W3C//DTD SVG 1.1//EN" "http://www.w3.org/Graphics/SVG/1.1/DTD/svg11.dtd">
<svg version="1.1" xmlns="http://www.w3.org/2000/svg" xmlns:xlink="http://www.w3.org/1999/xlink" width="32" height="32" viewBox="0 0 32 32">
<g>
</g>
	<path d="M15.997 12.525c-1.912 0-3.475 1.555-3.475 3.475s1.563 3.475 3.475 3.475c1.922 0 3.478-1.555 3.478-3.475 0-1.92-1.557-3.475-3.478-3.475zM2.099 16c0 1.919 1.556 3.475 3.475 3.475 1.919 0 3.475-1.556 3.475-3.475 0-1.919-1.556-3.475-3.475-3.475-1.919 0-3.475 1.556-3.475 3.475zM22.95 16c0 1.919 1.556 3.475 3.475 3.475s3.475-1.556 3.475-3.475c0-1.919-1.556-3.475-3.475-3.475-1.919 0-3.475 1.556-3.475 3.475z" fill="#000000"></path>
</svg>
