<?xml version="1.0" encoding="utf-8"?>
<!-- Generated by IcoMoon.io -->
<!DOCTYPE svg PUBLIC "-//W3C//DTD SVG 1.1//EN" "http://www.w3.org/Graphics/SVG/1.1/DTD/svg11.dtd">
<svg version="1.1" xmlns="http://www.w3.org/2000/svg" xmlns:xlink="http://www.w3.org/1999/xlink" width="32" height="32" viewBox="0 0 32 32">
<g>
</g>
	<path d="M16 0.533c-8.542 0-15.467 6.925-15.467 15.467s6.925 15.466 15.467 15.466c8.539 0 15.466-6.922 15.466-15.466 0-8.541-6.925-15.467-15.466-15.467zM18.062 27.147v-4.96c0-1.141-0.923-2.062-2.062-2.062-1.141 0-2.064 0.922-2.064 2.062v4.96c-4.608-0.85-8.235-4.475-9.083-9.085h4.96c1.139 0 2.062-0.923 2.062-2.062 0-1.141-0.923-2.064-2.062-2.064h-4.96c0.846-4.608 4.475-8.234 9.083-9.083v4.96c0 1.139 0.923 2.062 2.064 2.062 1.139 0 2.062-0.923 2.062-2.062v-4.96c4.61 0.846 8.234 4.475 9.082 9.083h-4.957c-1.141 0-2.062 0.923-2.062 2.064 0 1.139 0.922 2.062 2.062 2.062h4.957c-0.846 4.61-4.472 8.238-9.082 9.085z" fill="#000000"></path>
</svg>
