<?xml version="1.0" encoding="utf-8"?>
<!-- Generated by IcoMoon.io -->
<!DOCTYPE svg PUBLIC "-//W3C//DTD SVG 1.1//EN" "http://www.w3.org/Graphics/SVG/1.1/DTD/svg11.dtd">
<svg version="1.1" xmlns="http://www.w3.org/2000/svg" xmlns:xlink="http://www.w3.org/1999/xlink" width="32" height="32" viewBox="0 0 32 32">
<g>
</g>
	<path d="M28.843 9.646h-25.685c-1.554 0-2.811 1.259-2.811 2.81v7.088c0 1.554 1.258 2.81 2.811 2.81h25.685c1.554 0 2.81-1.256 2.81-2.81v-7.088c0-1.552-1.256-2.81-2.81-2.81zM10.842 19.632h-1.582l-3.077-4.699c-0.16-0.243-0.275-0.44-0.347-0.59l-0.026-0c0.029 0.253 0.046 0.638 0.046 1.158v4.13l-1.469-0v-7.261h1.688l2.962 4.565c0.197 0.302 0.318 0.498 0.365 0.578h0.021c-0.030-0.176-0.046-0.51-0.046-1.003l-0-4.139h1.469v7.262zM16.826 19.632h-4.296v-7.262h4.13v1.266l-2.584-0v1.71h2.4v1.261h-2.4v1.758h2.75l0 1.267zM25.675 19.632h-1.718l-1.237-4.734c-0.066-0.256-0.106-0.523-0.118-0.802h-0.019c-0.032 0.325-0.075 0.592-0.131 0.802l-1.267 4.734h-1.784l-1.938-7.261h1.698l1.078 4.922c0.046 0.218 0.082 0.49 0.101 0.818h0.032c0.016-0.256 0.066-0.536 0.147-0.84l1.35-4.899h1.643l1.229 4.96c0.050 0.197 0.091 0.454 0.118 0.766h0.022c0.013-0.272 0.050-0.536 0.109-0.797l1.053-4.931h1.571l-1.939 7.262z" fill="#000000"></path>
</svg>
