<?xml version="1.0" encoding="utf-8"?>
<!-- Generated by IcoMoon.io -->
<!DOCTYPE svg PUBLIC "-//W3C//DTD SVG 1.1//EN" "http://www.w3.org/Graphics/SVG/1.1/DTD/svg11.dtd">
<svg version="1.1" xmlns="http://www.w3.org/2000/svg" xmlns:xlink="http://www.w3.org/1999/xlink" width="32" height="32" viewBox="0 0 32 32">
<g>
</g>
	<path d="M7.328 12.328c-1.477 0-2.672 1.195-2.672 2.672v13.464c0 1.475 1.195 2.672 2.672 2.672h17.344c1.477 0 2.672-1.197 2.672-2.672v-13.464c0-1.477-1.195-2.672-2.672-2.672h-12.485v-3.325c0-3.51 1.891-4.405 3.814-4.405 1.864 0 3.811 0.894 3.811 4.405v1.237h3.674v-1.362c0-4.427-3.171-8.013-7.595-8.013h0.222c-4.426 0-7.658 3.586-7.658 8.013v3.448h-1.128z" fill="#000000"></path>
</svg>
