<?xml version="1.0" encoding="utf-8"?>
<!-- Generated by IcoMoon.io -->
<!DOCTYPE svg PUBLIC "-//W3C//DTD SVG 1.1//EN" "http://www.w3.org/Graphics/SVG/1.1/DTD/svg11.dtd">
<svg version="1.1" xmlns="http://www.w3.org/2000/svg" xmlns:xlink="http://www.w3.org/1999/xlink" width="32" height="32" viewBox="0 0 32 32">
<g>
</g>
	<path d="M15.285 17.448l-1.992-1.054 1.061 1.986 0.931-0.931zM29.066 0.586l-10.144-0.194-18.624 18.509 12.885 12.709 18.307-18.157 0.214-10.344-2.638-2.523zM12.946 22.81c-0.154 0.39-0.434 0.79-0.843 1.2-0.722 0.722-1.36 1.082-1.915 1.082-0.555 0-1.066-0.194-1.531-0.584l1.17-1.328c0.229 0.178 0.438 0.275 0.627 0.301 0.307 0.034 0.586-0.072 0.835-0.322 0.187-0.187 0.288-0.374 0.301-0.563 0.016-0.19-0.035-0.344-0.152-0.459-0.11-0.109-0.258-0.16-0.438-0.15-0.184 0.010-0.491 0.154-0.917 0.426-0.702 0.446-1.285 0.685-1.744 0.715-0.461 0.032-0.858-0.115-1.189-0.45-0.218-0.216-0.363-0.485-0.43-0.806-0.069-0.318-0.030-0.662 0.114-1.029 0.142-0.363 0.435-0.766 0.877-1.206 0.541-0.544 1.054-0.856 1.541-0.938 0.488-0.085 0.976 0.066 1.469 0.453l-1.163 1.306c-0.222-0.157-0.434-0.229-0.622-0.21-0.192 0.019-0.381 0.122-0.566 0.306-0.154 0.154-0.234 0.301-0.248 0.44-0.011 0.144 0.029 0.259 0.12 0.354 0.069 0.066 0.162 0.098 0.277 0.088 0.118-0.006 0.318-0.102 0.597-0.285 0.698-0.45 1.234-0.738 1.605-0.856 0.374-0.122 0.712-0.147 1.014-0.072 0.299 0.075 0.565 0.229 0.797 0.459 0.27 0.272 0.446 0.597 0.523 0.978 0.081 0.379 0.046 0.765-0.106 1.152zM17.384 18.581l-0.91-0.488-1.49 1.488 0.496 0.906-1.339 1.338-2.646-5.832 1.429-1.43 5.834 2.646-1.373 1.373zM19.174 16.792l-4.24-4.238 1.309-1.31 3.197 3.197 2.045-2.045 1.045 1.043-3.355 3.354zM23.122 12.845l-4.24-4.24 3.512-3.512 0.906 0.904-2.2 2.198 0.675 0.675 2.038-2.040 0.866 0.866-2.038 2.037 0.835 0.837 2.261-2.262 0.963 0.96-3.578 3.578zM27.813 5.664c-0.901 0-1.629-0.73-1.629-1.629 0-0.901 0.728-1.629 1.629-1.629s1.627 0.728 1.627 1.629c0 0.898-0.728 1.629-1.627 1.629z" fill="#000000"></path>
</svg>
