<?xml version="1.0" encoding="utf-8"?>
<!-- Generated by IcoMoon.io -->
<!DOCTYPE svg PUBLIC "-//W3C//DTD SVG 1.1//EN" "http://www.w3.org/Graphics/SVG/1.1/DTD/svg11.dtd">
<svg version="1.1" xmlns="http://www.w3.org/2000/svg" xmlns:xlink="http://www.w3.org/1999/xlink" width="32" height="32" viewBox="0 0 32 32">
<g>
</g>
	<path d="M31.117 13.712v-12.298l-4.28 4.131c0.872 0.907 1.634 1.918 2.258 3.016l-4.107-0.258c-0.152-0.178-0.318-0.342-0.482-0.51l-6.133 5.918h12.744zM16.917 0.941c-8.317-0.522-15.485 5.798-16.003 14.117-0.522 8.318 5.798 15.483 14.115 16.002 6.234 0.39 11.818-3.058 14.445-8.314l-3.603-0.227c-2.264 3.432-6.24 5.594-10.638 5.318-6.538-0.41-11.504-6.040-11.098-12.578 0.41-6.538 6.042-11.504 12.579-11.096 3.086 0.195 5.805 1.563 7.792 3.629l2.331-2.248c-2.525-2.627-5.997-4.357-9.92-4.603zM29.096 8.562c-0.626-1.099-1.386-2.109-2.258-3.016l-2.331 2.248c0.163 0.168 0.33 0.333 0.482 0.51l4.107 0.258z" fill="#000000"></path>
</svg>
