<?xml version="1.0" encoding="utf-8"?>
<!-- Generated by IcoMoon.io -->
<!DOCTYPE svg PUBLIC "-//W3C//DTD SVG 1.1//EN" "http://www.w3.org/Graphics/SVG/1.1/DTD/svg11.dtd">
<svg version="1.1" xmlns="http://www.w3.org/2000/svg" xmlns:xlink="http://www.w3.org/1999/xlink" width="32" height="32" viewBox="0 0 32 32">
<g>
</g>
	<path d="M14.088 1.664c-1.587 0-2.867 1.278-2.867 2.867v4.27h6.453c2.115 0 3.112 1.258 3.112 3.374v4.779h2.622l4.776 4.778-0.387-4.778h0.149c1.59 0 3.578-1.28 3.578-2.869l-0-9.555c0-1.589-1.278-2.867-2.867-2.867h-14.568zM3.344 10.042c-1.589 0-2.867 1.278-2.867 2.866v9.782c0 1.589 1.278 2.867 2.867 2.867h0.187l1.478 4.778 4.779-4.778h6.926c1.59 0 2.869-1.278 2.869-2.867l0-9.782c0-1.587-1.278-2.866-2.869-2.866l-13.371 0z" fill="#000000"></path>
</svg>
