<?xml version="1.0" encoding="utf-8"?>
<!-- Generated by IcoMoon.io -->
<!DOCTYPE svg PUBLIC "-//W3C//DTD SVG 1.1//EN" "http://www.w3.org/Graphics/SVG/1.1/DTD/svg11.dtd">
<svg version="1.1" xmlns="http://www.w3.org/2000/svg" xmlns:xlink="http://www.w3.org/1999/xlink" width="32" height="32" viewBox="0 0 32 32">
<g>
</g>
	<path d="M28.163 0.8h-24.322c-1.68 0-3.042 1.362-3.042 3.040v16.72c0 1.678 1.362 3.037 3.042 3.037h6.078v7.603l7.6-7.603h10.642c1.678 0 3.037-1.36 3.037-3.037l-0-16.72c0.002-1.678-1.358-3.040-3.035-3.040zM8.4 14.101c-1.050 0-1.901-0.85-1.901-1.899 0-1.053 0.851-1.901 1.901-1.901 1.050 0 1.899 0.848 1.899 1.901 0 1.048-0.85 1.899-1.899 1.899zM16 14.101c-1.050 0-1.901-0.85-1.901-1.899 0-1.053 0.85-1.901 1.901-1.901s1.901 0.848 1.901 1.901c0 1.048-0.851 1.899-1.901 1.899zM23.6 14.101c-1.046 0-1.901-0.85-1.901-1.899 0-1.053 0.853-1.901 1.901-1.901s1.901 0.848 1.901 1.901c0 1.048-0.854 1.899-1.901 1.899z" fill="#000000"></path>
</svg>
