<?xml version="1.0" encoding="utf-8"?>
<!-- Generated by IcoMoon.io -->
<!DOCTYPE svg PUBLIC "-//W3C//DTD SVG 1.1//EN" "http://www.w3.org/Graphics/SVG/1.1/DTD/svg11.dtd">
<svg version="1.1" xmlns="http://www.w3.org/2000/svg" xmlns:xlink="http://www.w3.org/1999/xlink" width="32" height="32" viewBox="0 0 32 32">
<g>
</g>
	<path d="M28.771 21.107c1.41 0 2.554-1.144 2.554-2.555v-11.491c0-1.411-1.144-2.555-2.554-2.555h-21.555l-3.27-3.269c-0.747-0.749-1.962-0.749-2.707 0-0.749 0.747-0.749 1.96 0 2.707h-0.003l5.826 5.827v11.336l-2.555 2.554c-2.115 0-3.832 1.715-3.832 3.834 0 2.114 1.715 3.83 3.832 3.83 1.666 0 3.067-1.069 3.597-2.554h15.794c0.526 1.485 1.931 2.554 3.597 2.554 2.114 0 3.832-1.715 3.832-3.83 0-2.117-1.717-3.834-3.832-3.834-1.666 0-3.070 1.072-3.597 2.554l-15.794-0c-0.194-0.541-0.49-1.034-0.888-1.43l3.677-3.677h17.88zM27.494 18.554h-3.834l0-11.494h3.834l-0 11.494zM21.107 18.554h-3.832v-11.494h3.832v11.494zM10.893 7.061h3.832v11.494h-3.832v-11.494zM27.494 26.214c0.704 0 1.278 0.574 1.278 1.28s-0.573 1.277-1.278 1.277c-0.706 0-1.277-0.571-1.277-1.277s0.57-1.28 1.277-1.28zM4.506 28.77c-0.704 0-1.277-0.571-1.277-1.277s0.571-1.28 1.277-1.28c0.706 0 1.277 0.574 1.277 1.28s-0.57 1.277-1.277 1.277z" fill="#000000"></path>
</svg>
