<?xml version="1.0" encoding="utf-8"?>
<!-- Generated by IcoMoon.io -->
<!DOCTYPE svg PUBLIC "-//W3C//DTD SVG 1.1//EN" "http://www.w3.org/Graphics/SVG/1.1/DTD/svg11.dtd">
<svg version="1.1" xmlns="http://www.w3.org/2000/svg" xmlns:xlink="http://www.w3.org/1999/xlink" width="32" height="32" viewBox="0 0 32 32">
<g>
</g>
	<path d="M16 0.226c-8.699 0-15.774 7.075-15.774 15.774s7.077 15.774 15.774 15.774c8.698 0 15.774-7.077 15.774-15.774 0-8.699-7.077-15.774-15.774-15.774zM16 29.146c-7.248 0-13.146-5.899-13.146-13.146 0-7.248 5.898-13.147 13.146-13.147 7.25 0 13.147 5.899 13.147 13.147 0 7.246-5.898 13.146-13.147 13.146zM10.742 14.686c1.45 0 2.63-1.176 2.63-2.63s-1.181-2.629-2.63-2.629-2.63 1.176-2.63 2.629 1.181 2.63 2.63 2.63zM21.112 19.797c-1.366 1.366-3.182 2.118-5.112 2.118-1.931 0-3.746-0.754-5.112-2.118-0.514-0.512-1.347-0.512-1.859 0-0.512 0.515-0.512 1.347 0 1.859 1.864 1.862 4.339 2.89 6.971 2.89 2.632 0 5.109-1.027 6.971-2.89 0.512-0.512 0.512-1.344 0-1.859-0.514-0.512-1.346-0.512-1.859 0zM21.258 9.427c-1.451 0-2.63 1.176-2.63 2.63s1.178 2.63 2.63 2.63 2.63-1.176 2.63-2.63-1.179-2.63-2.63-2.63z" fill="#000000"></path>
</svg>
