<?xml version="1.0" encoding="utf-8"?>
<!-- Generated by IcoMoon.io -->
<!DOCTYPE svg PUBLIC "-//W3C//DTD SVG 1.1//EN" "http://www.w3.org/Graphics/SVG/1.1/DTD/svg11.dtd">
<svg version="1.1" xmlns="http://www.w3.org/2000/svg" xmlns:xlink="http://www.w3.org/1999/xlink" width="32" height="32" viewBox="0 0 32 32">
<g>
</g>
	<path d="M1.614 10.006c-0.662 0-1.197 0.538-1.197 1.198v9.59c0 0.662 0.534 1.198 1.197 1.198s1.2-0.536 1.2-1.198v-9.59c0-0.661-0.538-1.198-1.2-1.198zM30.386 10.006c-0.662 0-1.2 0.538-1.2 1.198v9.59c0 0.662 0.538 1.198 1.2 1.198s1.197-0.536 1.197-1.198l-0-9.59c0-0.661-0.534-1.198-1.197-1.198zM25.589 6.41c-1.322 0-2.397 1.075-2.397 2.4v5.992h-14.384v-5.992c0-1.325-1.075-2.4-2.397-2.4-1.325 0-2.4 1.075-2.4 2.4v14.382c0 1.325 1.075 2.398 2.4 2.398 1.322 0 2.397-1.074 2.397-2.398v-5.992h14.384v5.992c0 1.325 1.075 2.398 2.397 2.398 1.325 0 2.397-1.074 2.397-2.398v-14.382c0-1.325-1.072-2.4-2.397-2.4z" fill="#000000"></path>
</svg>
