<?xml version="1.0" encoding="utf-8"?>
<!-- Generated by IcoMoon.io -->
<!DOCTYPE svg PUBLIC "-//W3C//DTD SVG 1.1//EN" "http://www.w3.org/Graphics/SVG/1.1/DTD/svg11.dtd">
<svg version="1.1" xmlns="http://www.w3.org/2000/svg" xmlns:xlink="http://www.w3.org/1999/xlink" width="32" height="32" viewBox="0 0 32 32">
<g>
</g>
	<path d="M16.085 1.624c-7.944 0-14.384 6.44-14.384 14.384s6.44 14.384 14.384 14.384c7.944 0 14.384-6.44 14.384-14.384s-6.44-14.384-14.384-14.384zM23.648 11.557l-7.714 11.374c-0.232 0.339-0.594 0.566-0.952 0.566s-0.758-0.197-1.011-0.448l-4.526-4.528c-0.309-0.309-0.309-0.81 0-1.118l1.118-1.12c0.309-0.306 0.81-0.306 1.117 0l2.946 2.946 6.405-9.446c0.243-0.36 0.738-0.453 1.099-0.21l1.309 0.888c0.358 0.243 0.453 0.736 0.21 1.096z" fill="#000000"></path>
</svg>
