<?xml version="1.0" encoding="utf-8"?>
<!-- Generated by IcoMoon.io -->
<!DOCTYPE svg PUBLIC "-//W3C//DTD SVG 1.1//EN" "http://www.w3.org/Graphics/SVG/1.1/DTD/svg11.dtd">
<svg version="1.1" xmlns="http://www.w3.org/2000/svg" xmlns:xlink="http://www.w3.org/1999/xlink" width="32" height="32" viewBox="0 0 32 32">
<g>
</g>
	<path d="M17.293 3.147v-1.357c0-0.714-0.576-1.291-1.291-1.291s-1.291 0.578-1.291 1.291v1.357c-7.957 0.659-14.211 7.31-14.211 15.435 0-2.139 1.736-3.874 3.877-3.874s3.875 1.734 3.875 3.874c0-2.139 1.736-3.874 3.875-3.874 0.997 0 1.898 0.386 2.584 1.005v11.91c0 2.138 1.734 3.875 3.875 3.875 2.139 0 3.874-1.738 3.874-3.875 0-0.712-0.578-1.291-1.291-1.291-0.714 0-1.291 0.578-1.291 1.291s-0.581 1.291-1.293 1.291c-0.715 0-1.294-0.578-1.294-1.291v-11.91c0.688-0.619 1.586-1.005 2.586-1.005 2.138 0 3.875 1.734 3.875 3.874 0-2.139 1.734-3.874 3.872-3.874 2.141 0 3.875 1.734 3.875 3.874 0.003-8.125-6.25-14.776-14.205-15.435z" fill="#000000"></path>
</svg>
