<?xml version="1.0" encoding="utf-8"?>
<!-- Generated by IcoMoon.io -->
<!DOCTYPE svg PUBLIC "-//W3C//DTD SVG 1.1//EN" "http://www.w3.org/Graphics/SVG/1.1/DTD/svg11.dtd">
<svg version="1.1" xmlns="http://www.w3.org/2000/svg" xmlns:xlink="http://www.w3.org/1999/xlink" width="32" height="32" viewBox="0 0 32 32">
<g>
</g>
	<path d="M19.568 6.182c0 2.141-1.708 3.876-3.814 3.876s-3.814-1.735-3.814-3.876c0-2.141 1.708-3.876 3.814-3.876 2.106 0 3.814 1.735 3.814 3.876z" fill="#000000"></path>
	<path d="M15.748 18.162h-4.036v-2.96l-3.084 3.156c-1.394 1.416-3.282-0.4-1.886-1.818l5.108-5.198c0.412-0.418 0.864-0.684 1.586-0.684h4.582c0.718 0 1.202 0.258 1.63 0.684l5.158 5.25c1.33 1.352-0.61 3.184-1.884 1.818l-3.166-3.224v2.976h-4.008z" fill="#000000"></path>
	<path d="M19.738 19.696l-3.030 3.082 2.226 2.256-2.282 2.318c-1.344 1.366 0.512 3.32 1.902 1.908l3.606-3.808c0.776-0.804 0.99-2.286 0.158-3.128 0-0.004-2.58-2.628-2.58-2.628z" fill="#000000"></path>
	<path d="M11.714 19.696l3.030 3.082-2.226 2.256 2.282 2.318c1.346 1.366-0.512 3.32-1.906 1.908l-3.606-3.808c-0.772-0.804-0.986-2.286-0.156-3.128 0.002-0.004 2.582-2.628 2.582-2.628z" fill="#000000"></path>
	<path d="M12.778 19.63c-0.532-0.52-0.358-0.946 0.386-0.946h5.12c0.744 0 0.928 0.436 0.408 0.968l-1.932 1.982c-0.52 0.532-1.378 0.542-1.91 0.022l-2.072-2.026z" fill="#000000"></path>
</svg>
