<?xml version="1.0" encoding="utf-8"?>
<!-- Generated by IcoMoon.io -->
<!DOCTYPE svg PUBLIC "-//W3C//DTD SVG 1.1//EN" "http://www.w3.org/Graphics/SVG/1.1/DTD/svg11.dtd">
<svg version="1.1" xmlns="http://www.w3.org/2000/svg" xmlns:xlink="http://www.w3.org/1999/xlink" width="32" height="32" viewBox="0 0 32 32">
<g>
</g>
	<path d="M17.114 4.376v-1.226c0-0.646-0.522-1.168-1.168-1.168-0.644 0-1.166 0.522-1.166 1.168v1.226c-7.188 0.594-12.84 6.606-12.84 13.948 0-1.934 1.568-3.502 3.502-3.502 1.934 0 3.502 1.568 3.502 3.502 0-1.934 1.568-3.502 3.502-3.502 0.9 0 1.714 0.35 2.334 0.908v10.764c0 1.932 1.568 3.502 3.502 3.502 1.932 0 3.502-1.568 3.502-3.502 0-0.646-0.522-1.168-1.168-1.168-0.644 0-1.166 0.522-1.166 1.168 0 0.644-0.522 1.166-1.166 1.166-0.646 0-1.168-0.524-1.168-1.166v-10.764c0.62-0.558 1.434-0.908 2.334-0.908 1.932 0 3.502 1.568 3.502 3.502 0-1.934 1.568-3.502 3.502-3.502 1.932 0 3.502 1.568 3.502 3.502-0.002-7.342-5.654-13.354-12.842-13.948z" fill="#000000"></path>
</svg>
