<?xml version="1.0" encoding="utf-8"?>
<!-- Generated by IcoMoon.io -->
<!DOCTYPE svg PUBLIC "-//W3C//DTD SVG 1.1//EN" "http://www.w3.org/Graphics/SVG/1.1/DTD/svg11.dtd">
<svg version="1.1" xmlns="http://www.w3.org/2000/svg" xmlns:xlink="http://www.w3.org/1999/xlink" width="32" height="32" viewBox="0 0 32 32">
<g>
</g>
	<path d="M20.765 0.51h-9.531l-2.382 3.574h14.298l-2.384-3.574zM16 12.426c-5.266 0-9.534 4.269-9.533 9.533 0 5.262 4.267 9.531 9.533 9.531 5.264 0 9.53-4.269 9.533-9.531-0.003-5.264-4.269-9.534-9.533-9.533zM16 29.107c-3.95 0-7.149-3.202-7.149-7.15-0.002-3.947 3.2-7.147 7.149-7.147 3.949-0.002 7.149 3.2 7.149 7.147 0 3.949-3.2 7.149-7.149 7.15zM23.149 5.277h-14.298l7.149 7.149 7.149-7.149z" fill="#000000"></path>
</svg>
