<?xml version="1.0" encoding="utf-8"?>
<!-- Generated by IcoMoon.io -->
<!DOCTYPE svg PUBLIC "-//W3C//DTD SVG 1.1//EN" "http://www.w3.org/Graphics/SVG/1.1/DTD/svg11.dtd">
<svg version="1.1" xmlns="http://www.w3.org/2000/svg" xmlns:xlink="http://www.w3.org/1999/xlink" width="32" height="32" viewBox="0 0 32 32">
<g>
</g>
	<path d="M28.602 4.774h-24.286v19.888c0 0.509-0.414 0.922-0.923 0.922-0.51 0-0.923-0.413-0.923-0.922v-19.888h-1.845v19.997c0 1.248 1.062 2.453 2.31 2.453h25.667c1.557 0 2.774-1.453 2.774-3.008l0-16.576c0-1.552-1.218-2.866-2.774-2.866zM12.618 23.227h-5.534v-7.688h5.534l0 7.688zM20.613 19.843h-5.845v-0.923h5.843v0.923zM28.917 19.843h-6.152v-0.923h6.152v0.923zM20.613 16.768h-5.845v-0.923h5.843v0.923zM28.917 16.768h-6.152v-0.923h6.152v0.923zM20.613 23.227h-5.845v-0.92h5.843v0.92zM28.917 23.227h-6.152v-0.92h6.152v0.92zM8.034 13.334l-1.262-5.288h1.093l0.797 3.632 0.968-3.632h1.269l0.93 3.694 0.811-3.694h1.074l-1.282 5.288h-1.134l-1.054-3.954-1.048 3.954h-1.16zM14.259 13.334v-5.288h3.92v0.894l-2.853 0v1.173h2.658v0.89l-2.658-0v1.44h2.954v0.891h-4.021zM19.186 13.334v-5.288h3.92v0.894h-2.851v1.173h2.654v0.89h-2.654v1.44h2.954v0.891h-4.022zM24.13 13.334v-5.288h1.066v2.347l2.158-2.347h1.435l-1.994 2.058 2.101 3.23h-1.382l-1.453-2.483-0.866 0.885v1.598h-1.066z" fill="#000000"></path>
</svg>
